<?xml version="1.0" encoding="utf-8"?>
<svg xmlns="http://www.w3.org/2000/svg" height="1024pt" version="1.1" viewBox="0 0 1024 1024" width="1024pt">
<path d="M 0.00 0.00 L 1024.00 0.00 L 1024.00 1024.00 L 0.00 1024.00 L 0.00 0.00 Z" fill="#98bfc5" opacity="1.00" stroke="#98bfc5" stroke-width="0.25"/>
<path d="M 606.13 231.08 C 614.45 225.54 622.70 218.63 632.97 217.48 C 642.49 216.57 650.21 223.54 655.10 230.93 C 660.71 240.09 663.58 250.51 666.60 260.72 C 672.83 283.95 674.91 308.05 675.88 332.00 C 676.74 339.32 676.41 346.70 676.62 354.05 C 676.66 357.56 678.72 360.60 680.79 363.28 C 691.02 376.02 699.33 390.49 704.06 406.19 C 705.88 412.26 708.22 418.25 708.83 424.61 C 708.73 430.32 710.73 437.00 706.28 441.60 C 705.48 439.71 704.71 437.81 703.93 435.91 C 703.77 437.13 703.65 438.35 703.55 439.59 C 700.61 414.52 692.08 389.62 676.37 369.62 C 673.79 366.11 669.81 363.20 668.77 358.82 C 668.82 333.19 667.23 307.52 663.21 282.19 C 660.16 266.10 656.88 249.67 648.79 235.22 C 647.04 231.92 644.35 229.30 641.84 226.59 C 642.69 226.61 644.39 226.66 645.24 226.68 C 640.05 221.02 630.98 220.84 624.66 224.63 C 613.97 230.62 603.94 237.75 594.44 245.47 C 586.17 252.87 576.66 258.88 569.34 267.31 C 562.77 274.23 556.58 281.50 549.92 288.32 C 525.04 283.56 499.56 285.38 474.45 286.62 C 477.88 288.94 482.15 288.06 486.03 288.00 C 496.68 287.30 507.35 287.79 518.00 287.54 C 522.45 287.40 526.90 287.74 531.29 288.49 C 513.75 288.38 496.13 287.63 478.69 289.83 C 474.14 290.57 469.60 291.36 465.01 291.79 C 453.93 293.28 443.24 296.74 432.48 299.64 C 430.77 300.07 429.04 300.28 427.30 300.43 C 425.11 298.03 422.63 295.93 420.10 293.91 C 402.40 278.66 382.93 265.36 361.89 255.15 C 354.61 252.04 347.15 247.77 338.96 248.55 C 333.37 249.53 329.42 254.28 327.11 259.17 C 324.99 263.05 323.30 267.19 322.54 271.57 C 321.36 278.34 319.95 285.08 319.01 291.89 C 318.44 291.30 317.87 290.72 317.30 290.13 C 316.49 303.08 314.91 316.00 315.32 329.00 C 314.88 339.92 316.56 350.77 316.58 361.68 C 316.55 367.30 318.25 372.70 318.92 378.23 C 319.44 380.42 317.83 382.12 316.71 383.77 C 316.65 381.90 316.63 380.04 316.64 378.18 C 315.86 379.13 315.07 380.07 314.28 381.01 C 309.07 353.33 308.52 324.94 311.08 296.94 C 312.07 290.00 312.97 283.03 314.31 276.14 C 316.60 266.48 318.40 255.93 325.35 248.35 C 330.00 243.01 337.41 239.60 344.52 241.12 C 357.04 243.31 368.18 249.84 379.31 255.64 C 392.78 263.09 405.26 272.17 417.40 281.58 C 421.19 284.84 424.55 288.66 428.88 291.24 C 430.51 292.31 432.51 291.57 434.24 291.20 C 447.28 287.31 460.58 284.31 474.03 282.23 C 489.57 279.94 505.32 280.36 520.99 280.43 C 530.04 280.42 539.03 281.64 548.00 282.63 C 553.82 278.03 558.46 271.97 563.65 266.64 C 576.95 253.83 590.61 241.21 606.13 231.08 Z" fill="#2a2e3d" opacity="1.00" stroke="#2a2e3d" stroke-width="0.25"/>
<path d="M 624.66 224.63 C 630.98 220.84 640.05 221.02 645.24 226.68 C 644.39 226.66 642.69 226.61 641.84 226.59 C 637.99 225.66 633.94 224.61 630.00 225.67 C 625.52 227.32 621.47 229.92 617.49 232.50 C 595.50 246.95 575.24 264.16 557.87 283.94 C 555.39 286.51 553.34 289.84 549.95 291.29 C 543.72 290.44 537.54 289.22 531.29 288.49 C 526.90 287.74 522.45 287.40 518.00 287.54 C 507.35 287.79 496.68 287.30 486.03 288.00 C 482.15 288.06 477.88 288.94 474.45 286.62 C 499.56 285.38 525.04 283.56 549.92 288.32 C 556.58 281.50 562.77 274.23 569.34 267.31 C 576.66 258.88 586.17 252.87 594.44 245.47 C 603.94 237.75 613.97 230.62 624.66 224.63 Z" fill="#1d2533" opacity="1.00" stroke="#1d2533" stroke-width="0.25"/>
<path d="M 617.49 232.50 C 621.47 229.92 625.52 227.32 630.00 225.67 C 633.94 224.61 637.99 225.66 641.84 226.59 C 644.35 229.30 647.04 231.92 648.79 235.22 C 656.88 249.67 660.16 266.10 663.21 282.19 C 667.23 307.52 668.82 333.19 668.77 358.82 C 669.81 363.20 673.79 366.11 676.37 369.62 C 692.08 389.62 700.61 414.52 703.55 439.59 L 703.52 440.18 C 701.35 440.69 699.20 441.30 697.06 441.89 C 691.41 443.65 684.05 443.93 681.09 449.94 C 682.82 451.43 684.21 454.26 686.91 453.71 C 693.05 453.30 699.10 451.87 705.30 452.17 C 705.35 456.26 705.45 460.36 704.88 464.42 C 697.59 464.63 690.06 463.77 683.05 466.27 C 681.13 466.87 679.82 468.86 680.24 470.88 C 680.25 474.29 684.45 474.48 686.93 475.20 C 692.79 475.76 698.70 475.52 704.58 475.54 C 704.63 477.89 704.66 480.23 704.62 482.58 C 702.14 503.27 694.00 523.04 681.91 539.96 C 669.40 556.83 653.68 571.18 636.35 582.98 C 635.20 582.87 634.05 582.76 632.92 582.66 C 639.72 576.84 647.29 571.96 653.88 565.87 C 661.80 558.47 669.53 550.83 676.48 542.50 C 678.87 539.69 680.74 536.49 682.37 533.19 C 677.36 535.47 672.66 538.36 667.65 540.61 C 653.22 546.69 638.56 552.31 623.39 556.26 C 596.73 563.52 569.51 568.73 542.08 572.10 C 531.31 573.30 520.48 574.03 509.74 575.49 C 487.55 577.40 465.23 577.51 442.99 576.76 C 419.79 575.20 396.48 572.04 374.37 564.59 C 358.94 559.01 343.16 553.71 329.32 544.70 C 326.40 542.86 323.31 541.34 320.17 539.94 C 319.75 542.25 319.35 544.56 318.97 546.88 C 316.53 542.43 314.35 537.79 311.27 533.72 C 311.31 533.11 311.40 531.90 311.44 531.30 C 313.60 530.54 315.75 529.75 317.94 529.06 C 326.96 526.85 335.86 524.19 344.76 521.55 C 347.81 520.46 351.36 519.64 353.29 516.79 C 354.43 514.44 353.23 511.67 350.86 510.69 C 347.30 509.99 343.74 511.08 340.25 511.69 C 328.09 514.19 315.63 515.35 303.65 518.69 C 302.46 513.01 300.55 507.47 300.02 501.66 C 306.81 501.73 313.60 501.55 320.39 501.48 C 327.91 501.95 335.50 501.78 342.98 500.77 C 345.15 500.36 347.79 500.13 349.18 498.15 C 350.51 495.80 349.74 492.09 346.97 491.18 C 341.79 489.57 336.27 489.52 330.91 488.96 C 319.47 488.31 308.04 487.48 296.63 486.37 C 294.19 466.99 295.58 447.17 300.32 428.24 C 302.42 419.54 306.07 411.35 308.96 402.90 C 312.49 395.85 316.67 389.14 321.31 382.77 C 322.21 381.28 322.55 379.53 322.15 377.83 C 318.40 358.48 318.15 338.66 318.54 319.02 C 319.33 298.86 320.79 278.46 327.11 259.17 C 329.42 254.28 333.37 249.53 338.96 248.55 C 347.15 247.77 354.61 252.04 361.89 255.15 C 382.93 265.36 402.40 278.66 420.10 293.91 C 420.40 294.33 421.01 295.18 421.32 295.61 C 415.77 300.45 412.68 307.66 412.84 315.00 C 413.36 333.80 423.86 351.11 437.96 363.03 C 451.81 375.78 469.87 383.74 488.56 385.78 C 504.12 388.40 520.22 386.28 535.00 380.98 C 542.62 378.04 550.14 373.72 554.88 366.89 C 557.58 363.13 557.98 357.68 555.02 353.95 C 549.67 346.96 541.09 343.87 534.16 338.83 C 532.31 337.40 530.18 335.65 530.07 333.12 C 531.51 328.81 536.66 328.04 540.58 327.63 C 553.22 326.79 566.32 328.70 578.55 324.56 C 582.37 323.40 584.48 319.10 583.55 315.32 C 582.04 308.04 577.01 302.22 571.89 297.12 C 568.09 292.96 563.91 289.21 559.64 285.57 C 559.19 285.16 558.31 284.35 557.87 283.94 C 575.24 264.16 595.50 246.95 617.49 232.50 Z" fill="#fefdf5" opacity="1.00" stroke="#fefdf5" stroke-width="0.25"/>
<path d="M 622.36 258.35 C 625.32 256.42 628.21 253.64 631.94 253.59 C 634.57 254.82 634.94 258.05 635.71 260.52 C 640.76 280.98 642.25 302.06 643.38 323.03 C 643.54 325.36 643.10 327.73 641.31 329.37 C 632.52 323.17 623.41 317.47 614.22 311.89 C 608.52 308.73 602.42 306.38 596.52 303.64 C 590.74 300.90 584.34 299.56 578.93 296.05 C 584.52 288.03 592.25 281.95 599.47 275.49 C 606.80 269.38 614.57 263.85 622.36 258.35 Z" fill="#e1babc" opacity="1.00" stroke="#e1babc" stroke-width="0.25"/>
<path d="M 629.38 258.51 C 631.00 257.61 631.58 259.59 632.28 260.66 C 634.80 265.62 634.85 271.32 636.12 276.65 C 637.94 287.35 638.90 298.18 639.74 309.01 C 639.86 311.80 640.04 314.71 639.17 317.42 C 638.47 319.88 635.19 321.72 632.96 320.01 C 622.40 313.25 611.15 307.66 599.97 302.02 C 596.40 300.15 592.35 299.29 588.97 297.07 C 587.49 293.99 587.73 289.78 590.48 287.45 C 593.57 284.55 596.99 282.01 599.94 278.95 C 607.02 272.55 615.19 267.53 622.83 261.86 C 624.83 260.44 626.94 259.04 629.38 258.51 Z" fill="#fdb7b8" opacity="1.00" stroke="#fdb7b8" stroke-width="0.25"/>
<path d="M 322.54 271.57 C 323.30 267.19 324.99 263.05 327.11 259.17 C 320.79 278.46 319.33 298.86 318.54 319.02 C 318.15 338.66 318.40 358.48 322.15 377.83 C 322.55 379.53 322.21 381.28 321.31 382.77 C 320.57 375.16 318.50 367.72 318.45 360.05 C 316.36 337.38 316.89 314.53 319.01 291.89 C 319.95 285.08 321.36 278.34 322.54 271.57 Z" fill="#928b93" opacity="1.00" stroke="#928b93" stroke-width="0.25"/>
<path d="M 312.57 271.13 C 312.96 271.39 313.75 271.91 314.15 272.18 C 314.24 273.49 314.29 274.82 314.31 276.14 C 312.97 283.03 312.07 290.00 311.08 296.94 C 308.52 324.94 309.07 353.33 314.28 381.01 C 314.04 381.29 313.56 381.85 313.32 382.13 C 303.01 393.81 297.74 408.86 293.16 423.50 C 291.46 421.53 290.33 418.98 291.61 416.46 C 295.98 405.66 300.15 394.57 307.23 385.17 C 308.60 382.95 311.18 380.69 310.13 377.82 C 308.55 371.98 309.37 365.86 308.11 359.98 C 306.80 353.61 307.25 347.08 306.62 340.64 C 305.60 322.53 306.68 304.37 309.40 286.45 C 309.88 281.24 310.46 275.98 312.57 271.13 Z" fill="#b1c7cf" opacity="1.00" stroke="#b1c7cf" stroke-width="0.25"/>
<path d="M 345.06 280.14 C 345.30 277.71 347.30 276.13 348.84 274.46 C 352.57 275.88 356.30 277.32 359.81 279.23 C 370.86 285.24 381.67 291.72 391.85 299.13 C 396.49 302.23 400.94 305.63 404.99 309.48 C 403.90 310.86 402.72 312.24 401.15 313.10 C 384.30 322.27 368.10 332.92 354.01 346.00 C 351.94 347.84 349.83 349.63 347.71 351.43 C 344.59 347.48 344.99 342.18 344.25 337.47 C 342.49 323.69 341.81 309.70 343.42 295.87 C 344.03 290.63 344.25 285.35 345.06 280.14 Z" fill="#e4bbba" opacity="1.00" stroke="#e4bbba" stroke-width="0.25"/>
<path d="M 350.23 279.22 C 355.17 282.75 361.59 282.93 366.49 286.48 C 374.33 291.18 382.37 295.64 389.40 301.51 C 392.95 303.78 396.01 306.70 398.69 309.94 C 393.39 313.69 387.63 316.69 382.21 320.24 C 374.40 326.11 366.05 331.26 358.71 337.75 C 356.84 339.62 354.30 340.43 351.74 340.75 C 351.34 341.28 350.54 342.34 350.15 342.87 C 349.34 341.64 348.41 340.43 348.06 338.98 C 345.29 326.85 346.03 314.34 346.06 302.00 C 346.08 294.23 347.60 286.51 350.23 279.22 Z" fill="#feb7b9" opacity="1.00" stroke="#feb7b9" stroke-width="0.25"/>
<path d="M 549.95 291.29 C 553.34 289.84 555.39 286.51 557.87 283.94 C 558.31 284.35 559.19 285.16 559.64 285.57 C 558.43 287.41 557.25 289.28 555.98 291.08 C 553.60 292.52 551.24 294.60 548.29 294.43 C 543.54 294.19 538.90 293.07 534.19 292.60 C 524.23 291.28 514.18 291.74 504.16 291.55 C 492.60 291.42 481.16 293.27 469.70 294.56 C 460.67 295.64 451.93 298.23 443.06 300.12 C 437.38 301.15 432.01 304.72 426.06 303.28 C 426.46 302.32 426.88 301.37 427.30 300.43 C 429.04 300.28 430.77 300.07 432.48 299.64 C 443.24 296.74 453.93 293.28 465.01 291.79 C 469.60 291.36 474.14 290.57 478.69 289.83 C 496.13 287.63 513.75 288.38 531.29 288.49 C 537.54 289.22 543.72 290.44 549.95 291.29 Z" fill="#c8e6ea" opacity="1.00" stroke="#c8e6ea" stroke-width="0.25"/>
<path d="M 559.64 285.57 C 563.91 289.21 568.09 292.96 571.89 297.12 C 577.01 302.22 582.04 308.04 583.55 315.32 C 584.48 319.10 582.37 323.40 578.55 324.56 C 566.32 328.70 553.22 326.79 540.58 327.63 C 536.66 328.04 531.51 328.81 530.07 333.12 C 530.18 335.65 532.31 337.40 534.16 338.83 C 541.09 343.87 549.67 346.96 555.02 353.95 C 557.98 357.68 557.58 363.13 554.88 366.89 C 550.14 373.72 542.62 378.04 535.00 380.98 C 520.22 386.28 504.12 388.40 488.56 385.78 C 469.87 383.74 451.81 375.78 437.96 363.03 C 423.86 351.11 413.36 333.80 412.84 315.00 C 412.68 307.66 415.77 300.45 421.32 295.61 C 421.61 296.04 422.20 296.90 422.50 297.33 C 419.72 301.19 416.56 305.18 416.10 310.09 C 415.19 320.51 418.11 330.88 422.82 340.11 C 425.34 345.88 429.79 350.45 434.26 354.75 C 438.27 358.53 441.97 363.31 447.76 364.23 C 448.84 366.64 450.05 369.26 452.71 370.26 C 461.46 374.33 470.12 379.09 479.85 380.33 C 489.75 382.60 499.95 382.27 510.04 382.08 C 515.85 381.89 521.49 380.41 527.18 379.38 C 534.01 378.18 539.96 374.40 545.79 370.87 C 548.64 368.81 552.47 366.62 552.71 362.71 C 552.44 357.52 549.15 352.84 544.80 350.17 C 539.15 346.67 533.48 342.93 529.23 337.75 C 527.68 335.81 526.37 333.10 527.55 330.66 C 528.84 327.44 532.39 326.16 535.53 325.55 C 548.15 323.06 561.15 324.79 573.83 322.72 C 576.10 322.28 578.75 321.13 579.48 318.73 C 580.15 314.07 578.12 309.39 575.08 305.93 C 570.28 300.33 565.02 295.11 560.55 289.23 C 559.02 289.83 557.47 290.39 555.98 291.08 C 557.25 289.28 558.43 287.41 559.64 285.57 Z" fill="#b4cfce" opacity="1.00" stroke="#b4cfce" stroke-width="0.25"/>
<path d="M 555.98 291.08 C 557.47 290.39 559.02 289.83 560.55 289.23 C 565.02 295.11 570.28 300.33 575.08 305.93 C 578.12 309.39 580.15 314.07 579.48 318.73 C 578.75 321.13 576.10 322.28 573.83 322.72 C 561.15 324.79 548.15 323.06 535.53 325.55 C 532.39 326.16 528.84 327.44 527.55 330.66 C 526.37 333.10 527.68 335.81 529.23 337.75 C 533.48 342.93 539.15 346.67 544.80 350.17 C 549.15 352.84 552.44 357.52 552.71 362.71 C 552.47 366.62 548.64 368.81 545.79 370.87 C 539.96 374.40 534.01 378.18 527.18 379.38 C 521.49 380.41 515.85 381.89 510.04 382.08 C 499.95 382.27 489.75 382.60 479.85 380.33 C 470.12 379.09 461.46 374.33 452.71 370.26 C 450.05 369.26 448.84 366.64 447.76 364.23 C 441.97 363.31 438.27 358.53 434.26 354.75 C 429.79 350.45 425.34 345.88 422.82 340.11 C 418.11 330.88 415.19 320.51 416.10 310.09 C 416.56 305.18 419.72 301.19 422.50 297.33 C 422.20 296.90 421.61 296.04 421.32 295.61 C 421.01 295.18 420.40 294.33 420.10 293.91 C 422.63 295.93 425.11 298.03 427.30 300.43 C 426.88 301.37 426.46 302.32 426.06 303.28 C 432.01 304.72 437.38 301.15 443.06 300.12 C 451.93 298.23 460.67 295.64 469.70 294.56 C 481.16 293.27 492.60 291.42 504.16 291.55 C 514.18 291.74 524.23 291.28 534.19 292.60 C 538.90 293.07 543.54 294.19 548.29 294.43 C 551.24 294.60 553.60 292.52 555.98 291.08 Z" fill="#afdadd" opacity="1.00" stroke="#afdadd" stroke-width="0.25"/>
<path d="M 317.30 290.13 C 317.87 290.72 318.44 291.30 319.01 291.89 C 316.89 314.53 316.36 337.38 318.45 360.05 C 318.50 367.72 320.57 375.16 321.31 382.77 C 316.67 389.14 312.49 395.85 308.96 402.90 C 304.90 408.88 302.85 415.85 300.61 422.64 C 294.30 443.13 293.29 464.91 295.06 486.16 C 294.58 486.31 293.62 486.61 293.14 486.76 C 292.09 475.31 292.11 463.79 292.52 452.31 C 293.73 438.90 297.32 425.86 301.32 413.05 C 305.21 403.23 310.40 393.98 316.26 385.21 C 315.28 384.17 314.30 383.14 313.32 382.13 C 313.56 381.85 314.04 381.29 314.28 381.01 C 315.07 380.07 315.86 379.13 316.64 378.18 C 316.63 380.04 316.65 381.90 316.71 383.77 C 317.83 382.12 319.44 380.42 318.92 378.23 C 318.25 372.70 316.55 367.30 316.58 361.68 C 316.56 350.77 314.88 339.92 315.32 329.00 C 314.91 316.00 316.49 303.08 317.30 290.13 Z" fill="#120d17" opacity="1.00" stroke="#120d17" stroke-width="0.25"/>
<path d="M 605.40 373.42 C 606.48 371.55 608.85 372.49 610.60 372.32 C 611.08 376.69 608.88 380.61 607.15 384.45 C 605.39 387.96 602.36 391.88 597.98 391.48 C 593.41 390.06 590.63 385.87 587.57 382.49 C 585.47 380.68 586.46 377.84 586.68 375.51 C 592.00 374.94 594.08 380.54 597.36 383.57 C 597.92 383.57 599.04 383.56 599.60 383.55 C 601.52 380.17 602.96 376.48 605.40 373.42 Z" fill="#261e28" opacity="1.00" stroke="#261e28" stroke-width="0.25"/>
<path d="M 293.16 423.50 C 297.74 408.86 303.01 393.81 313.32 382.13 C 314.30 383.14 315.28 384.17 316.26 385.21 C 310.40 393.98 305.21 403.23 301.32 413.05 C 297.32 425.86 293.73 438.90 292.52 452.31 C 292.11 463.79 292.09 475.31 293.14 486.76 C 292.12 487.07 291.11 487.39 290.10 487.71 C 289.94 485.78 289.83 483.85 289.70 481.92 C 289.23 483.87 288.85 485.85 288.26 487.77 C 288.79 483.49 287.91 479.25 287.59 475.01 C 286.93 457.71 288.30 440.17 293.16 423.50 Z" fill="#2e3041" opacity="1.00" stroke="#2e3041" stroke-width="0.25"/>
<path d="M 615.56 396.79 C 628.44 393.59 642.63 396.81 653.29 404.61 C 664.45 412.11 671.59 424.83 673.58 438.00 C 673.75 443.00 673.93 448.04 673.46 453.04 C 670.32 470.64 657.03 486.35 639.76 491.47 C 633.00 493.30 625.90 492.66 618.99 492.45 C 598.31 489.63 581.07 471.62 578.48 451.02 C 578.23 444.52 578.03 437.91 579.81 431.58 C 584.75 414.96 598.46 400.76 615.56 396.79 Z" fill="#2b2029" opacity="1.00" stroke="#2b2029" stroke-width="0.25"/>
<path d="M 422.08 398.94 C 422.54 395.86 425.84 396.38 427.75 397.80 C 426.48 403.68 426.05 410.93 420.44 414.49 C 417.62 416.83 414.09 414.74 411.50 413.13 C 415.32 412.42 420.61 412.56 422.41 408.36 C 423.30 405.28 422.29 402.05 422.08 398.94 Z" fill="#150d16" opacity="1.00" stroke="#150d16" stroke-width="0.25"/>
<path d="M 401.48 399.57 C 402.88 399.45 404.29 399.24 405.71 399.32 C 408.81 401.86 411.37 405.05 414.75 407.25 C 415.76 408.00 417.15 407.81 418.26 407.41 C 419.67 404.65 420.47 401.61 422.08 398.94 C 422.29 402.05 423.30 405.28 422.41 408.36 C 420.61 412.56 415.32 412.42 411.50 413.13 C 407.68 411.39 404.83 408.04 402.38 404.73 C 401.10 403.30 401.60 401.30 401.48 399.57 Z" fill="#2a2631" opacity="1.00" stroke="#2a2631" stroke-width="0.25"/>
<path d="M 593.04 414.01 C 604.24 399.46 626.40 394.39 642.57 403.17 C 638.84 404.45 634.94 405.01 631.02 405.32 C 626.61 405.49 623.33 408.77 619.98 411.22 C 620.99 412.54 621.99 413.85 623.02 415.17 C 621.63 415.41 620.22 415.59 618.84 415.84 C 620.48 417.89 622.15 419.93 623.83 421.96 C 619.05 426.66 621.25 434.18 617.32 439.30 C 614.87 442.57 611.39 445.09 607.53 446.42 C 603.22 447.83 598.88 445.73 594.90 444.26 C 589.78 446.89 586.64 451.76 582.75 455.78 L 582.28 456.26 C 580.68 447.94 581.21 439.30 583.20 431.10 C 585.03 424.68 589.27 419.39 593.04 414.01 Z" fill="#3f353f" opacity="1.00" stroke="#3f353f" stroke-width="0.25"/>
<path d="M 300.61 422.64 C 302.85 415.85 304.90 408.88 308.96 402.90 C 306.07 411.35 302.42 419.54 300.32 428.24 C 295.58 447.17 294.19 466.99 296.63 486.37 C 308.04 487.48 319.47 488.31 330.91 488.96 C 336.27 489.52 341.79 489.57 346.97 491.18 C 349.74 492.09 350.51 495.80 349.18 498.15 C 347.79 500.13 345.15 500.36 342.98 500.77 C 335.50 501.78 327.91 501.95 320.39 501.48 C 327.82 499.85 335.46 499.90 343.02 499.34 C 344.87 499.05 347.26 499.05 348.36 497.24 C 349.36 495.24 348.18 492.27 345.80 492.07 C 331.07 489.46 316.05 489.47 301.16 488.61 C 299.06 487.94 297.05 487.06 295.06 486.16 C 293.29 464.91 294.30 443.13 300.61 422.64 Z" fill="#8f878c" opacity="1.00" stroke="#8f878c" stroke-width="0.25"/>
<path d="M 631.02 405.32 C 634.94 405.01 638.84 404.45 642.57 403.17 C 644.05 402.49 645.42 403.62 646.72 404.23 C 652.63 407.38 658.09 411.56 661.89 417.15 C 666.61 423.33 668.45 431.00 670.55 438.34 C 671.97 447.26 669.76 456.29 666.41 464.53 C 662.11 474.19 653.94 481.82 644.42 486.25 C 631.77 491.85 616.77 490.65 604.54 484.50 C 593.59 478.64 585.75 467.73 582.75 455.78 C 586.64 451.76 589.78 446.89 594.90 444.26 C 598.88 445.73 603.22 447.83 607.53 446.42 C 611.39 445.09 614.87 442.57 617.32 439.30 C 621.25 434.18 619.05 426.66 623.83 421.96 C 622.15 419.93 620.48 417.89 618.84 415.84 C 620.22 415.59 621.63 415.41 623.02 415.17 C 621.99 413.85 620.99 412.54 619.98 411.22 C 623.33 408.77 626.61 405.49 631.02 405.32 Z" fill="#4d3f49" opacity="1.00" stroke="#4d3f49" stroke-width="0.25"/>
<path d="M 598.23 418.95 C 601.01 417.88 604.15 418.26 607.08 418.43 C 611.93 419.17 614.90 423.78 616.42 428.07 C 617.94 435.17 612.14 442.73 604.95 443.36 C 597.71 444.43 591.31 437.81 590.53 430.96 C 590.98 426.11 593.69 421.11 598.23 418.95 Z" fill="#fdfbf8" opacity="1.00" stroke="#fdfbf8" stroke-width="0.25"/>
<path d="M 708.83 424.61 L 708.79 423.77 C 710.11 428.05 710.47 432.54 710.63 437.00 C 720.58 436.27 730.03 432.31 740.03 431.87 C 745.10 431.61 748.52 438.46 745.23 442.32 C 742.84 444.54 739.75 445.77 736.59 446.35 C 729.00 447.80 721.33 448.81 713.69 449.92 C 712.71 454.36 713.56 458.98 713.47 463.50 C 722.99 463.32 732.55 462.99 742.05 463.65 C 747.33 463.92 749.86 471.50 745.87 474.87 C 744.17 476.81 741.51 477.37 739.05 477.40 C 731.04 477.65 723.02 477.31 715.01 477.31 C 713.65 477.13 712.72 478.17 711.81 478.98 C 711.36 478.32 710.92 477.66 710.48 477.02 C 709.84 479.45 709.25 481.90 708.63 484.34 C 708.37 481.03 707.98 477.74 707.48 474.46 C 705.50 477.70 705.78 481.60 705.44 485.24 C 705.23 484.58 704.83 483.25 704.62 482.58 C 704.66 480.23 704.63 477.89 704.58 475.54 C 704.57 474.86 704.55 473.51 704.54 472.83 C 697.21 471.50 689.53 472.73 682.45 470.10 C 690.16 467.17 698.75 469.51 706.40 466.33 C 698.64 465.38 690.83 466.43 683.05 466.27 C 690.06 463.77 697.59 464.63 704.88 464.42 C 705.45 460.36 705.35 456.26 705.30 452.17 C 703.86 451.83 702.43 451.52 701.01 451.21 C 702.35 450.25 704.17 449.63 704.83 447.97 C 698.01 446.81 691.48 450.53 684.64 449.62 C 690.79 446.08 698.26 446.15 704.34 442.47 C 701.91 442.20 699.49 441.96 697.06 441.89 C 699.20 441.30 701.35 440.69 703.52 440.18 L 703.55 439.59 C 703.65 438.35 703.77 437.13 703.93 435.91 C 704.71 437.81 705.48 439.71 706.28 441.60 C 710.73 437.00 708.73 430.32 708.83 424.61 Z" fill="#3c3744" opacity="1.00" stroke="#3c3744" stroke-width="0.25"/>
<path d="M 393.40 428.46 C 406.10 425.53 420.25 427.40 431.07 435.00 C 439.10 440.68 445.65 448.65 449.12 457.90 C 454.16 470.36 453.42 484.93 447.52 496.96 C 439.24 511.63 423.45 523.56 405.99 522.74 C 400.07 522.76 393.98 522.75 388.39 520.52 C 371.96 514.99 359.68 499.91 356.44 483.03 C 356.18 476.67 355.77 470.14 357.48 463.93 C 362.16 446.89 376.18 432.76 393.40 428.46 Z" fill="#2a212a" opacity="1.00" stroke="#2a212a" stroke-width="0.25"/>
<path d="M 370.65 446.93 C 378.30 436.46 391.06 430.43 403.91 430.28 C 412.27 431.54 421.85 431.33 428.30 437.71 C 423.85 438.23 419.58 436.06 415.13 436.74 C 410.49 437.40 405.47 437.84 401.53 440.58 C 399.45 441.90 399.94 444.36 400.31 446.39 C 400.72 448.18 399.70 449.81 399.05 451.41 C 400.50 451.15 401.96 450.90 403.42 450.66 C 401.97 454.61 401.10 458.72 400.45 462.87 C 399.89 462.72 398.77 462.44 398.21 462.29 C 396.89 458.54 396.24 454.41 393.83 451.16 C 390.86 447.63 386.56 444.97 381.87 444.70 C 378.01 444.57 374.31 445.91 370.65 446.93 Z" fill="#423540" opacity="1.00" stroke="#423540" stroke-width="0.25"/>
<path d="M 415.13 436.74 C 419.58 436.06 423.85 438.23 428.30 437.71 L 429.04 437.67 C 436.79 443.14 443.33 450.61 446.32 459.74 C 450.04 471.59 450.22 485.17 444.19 496.30 C 441.01 501.82 437.27 507.30 431.80 510.78 C 422.59 517.28 411.08 521.22 399.76 519.57 C 388.20 518.18 376.39 513.33 369.25 503.76 C 368.21 502.05 365.90 500.47 366.10 498.40 C 366.63 496.23 367.96 493.99 367.23 491.72 C 366.23 488.15 364.61 484.80 363.14 481.41 C 364.70 480.29 366.17 478.74 368.21 478.61 C 375.92 477.67 383.64 476.78 391.41 476.47 C 391.07 475.55 390.74 474.61 390.42 473.70 C 391.80 474.01 393.18 474.34 394.56 474.67 C 394.07 473.60 393.59 472.52 393.13 471.45 C 395.28 468.67 397.00 465.59 398.21 462.29 C 398.77 462.44 399.89 462.72 400.45 462.87 C 401.10 458.72 401.97 454.61 403.42 450.66 C 401.96 450.90 400.50 451.15 399.05 451.41 C 399.70 449.81 400.72 448.18 400.31 446.39 C 399.94 444.36 399.45 441.90 401.53 440.58 C 405.47 437.84 410.49 437.40 415.13 436.74 Z" fill="#4e3f49" opacity="1.00" stroke="#4e3f49" stroke-width="0.25"/>
<path d="M 697.06 441.89 C 699.49 441.96 701.91 442.20 704.34 442.47 C 698.26 446.15 690.79 446.08 684.64 449.62 C 691.48 450.53 698.01 446.81 704.83 447.97 C 704.17 449.63 702.35 450.25 701.01 451.21 C 702.43 451.52 703.86 451.83 705.30 452.17 C 699.10 451.87 693.05 453.30 686.91 453.71 C 684.21 454.26 682.82 451.43 681.09 449.94 C 684.05 443.93 691.41 443.65 697.06 441.89 Z" fill="#28212d" opacity="1.00" stroke="#28212d" stroke-width="0.25"/>
<path d="M 736.59 446.35 C 739.75 445.77 742.84 444.54 745.23 442.32 C 745.91 442.90 746.60 443.48 747.30 444.08 C 744.72 446.37 741.93 448.57 738.60 449.62 C 735.34 450.64 731.96 451.28 728.86 452.73 C 731.36 452.70 733.86 452.64 736.37 452.65 C 734.84 453.30 733.31 453.91 731.79 454.55 C 731.65 455.20 731.53 455.86 731.42 456.53 C 728.75 456.81 725.97 457.02 723.71 458.60 C 730.63 459.65 737.93 458.30 744.55 461.01 C 742.42 461.57 740.22 461.87 738.03 461.77 C 730.06 461.51 722.09 461.72 714.13 461.75 C 713.84 457.81 713.73 453.86 713.69 449.92 C 721.33 448.81 729.00 447.80 736.59 446.35 Z" fill="#a8c0ca" opacity="1.00" stroke="#a8c0ca" stroke-width="0.25"/>
<path d="M 371.30 469.23 C 365.63 463.08 368.40 452.03 376.04 448.93 C 378.95 448.15 382.08 448.27 385.06 448.62 C 391.61 450.53 395.63 458.26 393.99 464.72 C 391.43 469.07 387.64 473.98 382.00 473.69 C 377.86 474.27 374.00 472.24 371.30 469.23 Z" fill="#fcfbf9" opacity="1.00" stroke="#fcfbf9" stroke-width="0.25"/>
<path d="M 499.35 454.48 C 507.60 448.34 518.25 448.85 527.98 449.41 C 529.86 449.46 531.30 450.85 532.89 451.70 C 532.32 452.52 531.73 453.33 531.12 454.12 C 520.65 450.65 508.94 452.56 499.55 458.13 C 499.47 456.91 499.40 455.69 499.35 454.48 Z" fill="#291c22" opacity="1.00" stroke="#291c22" stroke-width="0.25"/>
<path d="M 532.89 451.70 L 533.36 451.05 C 531.74 456.54 529.72 463.41 523.58 465.26 C 518.21 466.32 512.44 467.51 507.10 465.80 C 503.41 464.69 501.58 461.07 499.55 458.13 C 508.94 452.56 520.65 450.65 531.12 454.12 C 531.73 453.33 532.32 452.52 532.89 451.70 Z" fill="#f3cbce" opacity="1.00" stroke="#f3cbce" stroke-width="0.25"/>
<path d="M 360.14 468.46 C 361.30 464.10 361.90 459.43 364.58 455.67 C 363.77 461.78 365.83 467.59 368.69 472.89 C 369.57 471.67 370.44 470.45 371.30 469.23 C 374.00 472.24 377.86 474.27 382.00 473.69 C 387.64 473.98 391.43 469.07 393.99 464.72 C 393.73 466.64 393.29 468.54 392.67 470.39 C 392.79 470.66 393.01 471.19 393.13 471.45 C 393.59 472.52 394.07 473.60 394.56 474.67 C 393.18 474.34 391.80 474.01 390.42 473.70 C 390.74 474.61 391.07 475.55 391.41 476.47 C 383.64 476.78 375.92 477.67 368.21 478.61 C 366.17 478.74 364.70 480.29 363.14 481.41 C 364.61 484.80 366.23 488.15 367.23 491.72 C 367.96 493.99 366.63 496.23 366.10 498.40 C 364.72 496.87 363.34 495.27 362.65 493.30 C 359.75 485.44 358.09 476.74 360.14 468.46 Z" fill="#40333f" opacity="1.00" stroke="#40333f" stroke-width="0.25"/>
<path d="M 680.24 470.88 C 679.82 468.86 681.13 466.87 683.05 466.27 C 690.83 466.43 698.64 465.38 706.40 466.33 C 698.75 469.51 690.16 467.17 682.45 470.10 C 689.53 472.73 697.21 471.50 704.54 472.83 C 704.55 473.51 704.57 474.86 704.58 475.54 C 698.70 475.52 692.79 475.76 686.93 475.20 C 684.45 474.48 680.25 474.29 680.24 470.88 Z" fill="#241925" opacity="1.00" stroke="#241925" stroke-width="0.25"/>
<path d="M 516.45 471.29 C 517.65 470.55 518.86 469.82 520.09 469.11 C 525.27 472.44 523.32 479.24 526.27 483.88 C 529.67 489.98 535.11 495.43 541.96 497.37 C 547.90 497.84 555.39 498.84 559.45 493.37 C 562.41 490.12 561.23 485.57 561.64 481.60 C 563.50 481.48 565.45 481.05 567.28 481.66 C 569.49 484.63 568.58 488.65 568.45 492.09 C 565.85 501.30 555.88 506.91 546.58 505.66 C 546.46 512.04 546.41 519.13 542.29 524.39 C 539.61 528.26 535.43 530.97 531.04 532.47 C 525.30 533.06 519.03 533.33 514.02 530.00 C 506.78 526.14 503.33 518.21 501.40 510.64 C 494.88 510.52 486.90 512.46 481.91 507.07 C 478.04 503.14 474.35 496.30 478.31 491.26 C 479.93 491.37 481.56 491.51 483.18 491.67 C 484.41 495.02 483.71 499.62 487.10 501.78 C 490.40 504.66 495.10 503.65 499.09 503.35 C 507.30 500.45 513.52 492.73 515.47 484.33 C 517.12 480.16 516.33 475.64 516.45 471.29 Z" fill="#2e2434" opacity="1.00" stroke="#2e2434" stroke-width="0.25"/>
<path d="M 705.44 485.24 C 705.78 481.60 705.50 477.70 707.48 474.46 C 707.98 477.74 708.37 481.03 708.63 484.34 C 709.25 481.90 709.84 479.45 710.48 477.02 C 710.92 477.66 711.36 478.32 711.81 478.98 C 713.11 480.89 712.00 483.37 711.83 485.48 C 708.33 513.30 694.74 539.32 675.71 559.69 C 671.90 563.84 668.19 568.13 663.74 571.62 C 662.78 572.59 661.05 573.35 661.29 574.98 C 661.65 581.01 663.46 586.83 664.45 592.77 C 669.63 621.22 674.18 650.00 673.50 679.00 C 673.82 687.32 672.48 695.59 670.43 703.63 C 669.54 707.08 668.05 710.39 667.59 713.95 C 666.97 725.99 670.61 737.97 669.06 749.99 C 668.11 754.08 666.88 758.12 665.11 761.95 C 662.22 760.20 660.94 757.03 660.33 753.86 C 663.41 740.57 660.28 726.96 659.44 713.60 C 659.19 707.02 657.54 700.59 657.37 694.01 C 656.88 688.58 656.38 683.14 655.38 677.79 C 657.44 676.05 659.95 674.64 662.36 676.69 C 662.63 682.00 662.65 687.52 664.99 692.42 C 666.99 686.47 666.30 680.15 666.35 674.00 C 666.34 667.01 666.05 659.98 664.72 653.10 C 663.99 639.96 661.83 626.95 660.22 613.90 C 659.97 614.93 659.72 615.96 659.50 617.01 C 660.08 604.38 655.91 592.21 654.22 579.81 C 652.61 580.81 651.05 581.89 649.53 583.01 C 644.52 586.51 639.65 590.62 633.57 592.08 C 632.67 590.69 631.85 589.26 630.98 587.87 C 632.69 586.15 634.44 584.48 636.35 582.98 C 653.68 571.18 669.40 556.83 681.91 539.96 C 694.00 523.04 702.14 503.27 704.62 482.58 C 704.83 483.25 705.23 484.58 705.44 485.24 Z" fill="#2c2c3c" opacity="1.00" stroke="#2c2c3c" stroke-width="0.25"/>
<path d="M 289.70 481.92 C 289.83 483.85 289.94 485.78 290.10 487.71 C 291.11 487.39 292.12 487.07 293.14 486.76 C 293.62 486.61 294.58 486.31 295.06 486.16 C 297.05 487.06 299.06 487.94 301.16 488.61 C 299.30 488.85 297.46 489.17 295.63 489.51 C 306.54 494.07 318.72 490.14 329.93 493.22 C 335.35 494.86 341.28 493.23 346.51 495.67 C 331.02 498.22 315.22 497.71 299.60 499.02 C 299.71 499.68 299.92 501.00 300.02 501.66 C 300.55 507.47 302.46 513.01 303.65 518.69 C 303.80 519.64 303.95 520.61 304.10 521.58 C 313.04 519.89 321.97 518.17 330.97 516.83 C 337.65 516.26 344.32 515.59 350.85 514.02 C 350.68 514.57 350.33 515.66 350.16 516.21 C 342.51 518.19 335.09 520.94 327.44 522.92 C 321.47 524.73 315.19 525.73 309.64 528.73 C 312.40 528.91 315.17 529.08 317.94 529.06 C 315.75 529.75 313.60 530.54 311.44 531.30 C 311.40 531.90 311.31 533.11 311.27 533.72 C 310.19 532.79 309.06 531.92 307.94 531.06 C 308.56 533.31 309.20 535.56 309.87 537.81 C 309.06 538.97 308.24 540.11 307.43 541.28 C 305.96 538.84 304.71 536.28 303.89 533.56 C 300.57 533.34 297.33 534.24 294.05 534.39 C 290.85 533.42 287.61 530.73 288.25 527.03 C 287.72 522.70 292.58 521.25 295.78 520.08 C 294.92 514.17 292.32 508.66 291.60 502.70 C 287.49 501.96 282.94 499.97 281.59 495.66 C 281.62 491.85 284.79 488.87 288.26 487.77 C 288.85 485.85 289.23 483.87 289.70 481.92 Z" fill="#3d3441" opacity="1.00" stroke="#3d3441" stroke-width="0.25"/>
<path d="M 295.63 489.51 C 297.46 489.17 299.30 488.85 301.16 488.61 C 316.05 489.47 331.07 489.46 345.80 492.07 C 348.18 492.27 349.36 495.24 348.36 497.24 C 347.26 499.05 344.87 499.05 343.02 499.34 C 335.46 499.90 327.82 499.85 320.39 501.48 C 313.60 501.55 306.81 501.73 300.02 501.66 C 299.92 501.00 299.71 499.68 299.60 499.02 C 315.22 497.71 331.02 498.22 346.51 495.67 C 341.28 493.23 335.35 494.86 329.93 493.22 C 318.72 490.14 306.54 494.07 295.63 489.51 Z" fill="#261c28" opacity="1.00" stroke="#261c28" stroke-width="0.25"/>
<path d="M 520.98 490.98 C 523.66 492.22 525.04 494.96 527.06 496.98 C 530.52 500.81 535.45 502.65 539.97 504.88 C 541.16 505.49 542.97 506.14 542.57 507.88 C 542.77 513.97 542.18 520.94 536.92 524.93 C 528.59 533.56 513.03 529.46 508.06 519.16 C 506.72 516.07 505.23 512.82 505.36 509.39 C 508.18 506.51 511.73 504.43 514.43 501.42 C 517.28 498.41 519.36 494.78 520.98 490.98 Z" fill="#f8b5bb" opacity="1.00" stroke="#f8b5bb" stroke-width="0.25"/>
<path d="M 544.30 501.10 C 546.18 500.49 547.04 503.63 545.07 504.00 C 543.18 504.60 542.33 501.47 544.30 501.10 Z" fill="#413445" opacity="1.00" stroke="#413445" stroke-width="0.25"/>
<path d="M 303.65 518.69 C 315.63 515.35 328.09 514.19 340.25 511.69 C 343.74 511.08 347.30 509.99 350.86 510.69 C 353.23 511.67 354.43 514.44 353.29 516.79 C 351.36 519.64 347.81 520.46 344.76 521.55 C 335.86 524.19 326.96 526.85 317.94 529.06 C 315.17 529.08 312.40 528.91 309.64 528.73 C 315.19 525.73 321.47 524.73 327.44 522.92 C 335.09 520.94 342.51 518.19 350.16 516.21 C 350.33 515.66 350.68 514.57 350.85 514.02 C 344.32 515.59 337.65 516.26 330.97 516.83 C 321.97 518.17 313.04 519.89 304.10 521.58 C 303.95 520.61 303.80 519.64 303.65 518.69 Z" fill="#30262f" opacity="1.00" stroke="#30262f" stroke-width="0.25"/>
<path d="M 307.94 531.06 C 309.06 531.92 310.19 532.79 311.27 533.72 C 314.35 537.79 316.53 542.43 318.97 546.88 C 319.89 548.61 320.83 550.32 321.76 552.05 C 320.09 554.80 318.32 557.49 316.49 560.13 C 308.25 571.30 300.99 583.30 295.97 596.28 C 289.77 612.20 286.29 629.03 284.48 645.97 C 284.14 661.03 283.47 676.32 287.06 691.08 C 292.00 709.49 301.49 726.60 314.35 740.65 C 326.61 754.10 342.73 763.94 360.24 768.86 C 374.73 773.37 389.89 774.95 404.98 775.65 C 417.95 776.90 430.99 776.25 444.00 776.51 C 455.47 776.54 466.95 776.53 478.42 776.18 C 477.46 774.86 476.52 773.54 475.44 772.34 C 474.57 771.56 473.66 770.84 472.74 770.14 C 465.87 760.67 462.38 749.38 458.07 738.64 C 455.20 731.54 452.69 724.31 449.93 717.17 C 448.98 714.51 447.61 711.93 447.38 709.09 C 448.01 707.74 449.06 706.63 450.24 705.75 C 452.47 704.63 454.17 707.10 455.00 708.87 C 460.87 725.12 467.14 741.24 474.09 757.06 C 476.85 763.72 482.05 768.92 487.55 773.40 C 493.22 777.92 500.47 780.35 507.69 780.49 C 506.57 780.81 505.44 781.09 504.32 781.39 C 505.69 782.08 507.05 782.79 508.43 783.51 C 502.29 783.95 496.64 781.21 490.72 780.17 C 493.30 782.52 496.60 783.72 499.95 784.55 C 498.89 785.24 497.84 785.93 496.77 786.60 C 491.84 785.69 487.19 782.68 482.01 783.70 C 475.40 784.84 468.67 784.48 462.00 784.59 C 444.00 784.64 425.99 784.89 408.00 784.28 C 401.08 783.20 394.04 784.02 387.13 783.00 C 372.22 780.82 357.20 777.81 343.49 771.34 C 334.63 767.42 326.78 761.65 319.08 755.86 C 313.26 751.40 308.81 745.51 303.51 740.50 C 301.00 737.99 297.27 737.84 293.98 737.25 C 285.28 736.06 276.68 734.16 268.23 731.74 C 255.93 726.92 242.72 723.36 232.37 714.73 C 220.17 706.31 210.21 694.75 203.87 681.35 C 203.60 680.25 203.46 679.14 203.45 678.02 L 204.01 678.75 C 204.53 679.42 205.06 680.10 205.59 680.79 C 205.88 679.36 206.17 677.93 206.47 676.50 C 210.07 681.60 212.31 687.57 216.55 692.23 C 216.56 690.97 216.58 689.73 216.59 688.49 C 224.23 700.11 235.39 709.02 247.78 715.14 C 262.80 722.72 279.27 727.19 295.86 729.66 C 293.83 725.54 291.30 721.70 289.21 717.63 C 286.15 711.76 283.99 705.49 281.71 699.30 C 279.12 690.60 276.26 681.78 276.42 672.59 C 268.83 669.55 260.96 665.13 257.76 657.14 C 257.10 652.68 256.75 648.02 258.13 643.67 C 259.38 642.09 260.69 640.57 261.99 639.05 C 261.02 644.73 258.42 650.89 261.44 656.39 C 261.86 652.24 262.23 648.09 262.90 643.97 C 263.23 644.65 263.89 646.00 264.22 646.68 C 265.13 644.77 266.05 642.86 266.98 640.97 C 265.53 645.07 264.07 649.46 264.81 653.86 C 266.41 659.32 271.59 662.53 276.32 665.06 C 275.51 641.31 280.32 617.78 287.83 595.35 C 289.82 592.96 290.46 589.80 291.91 587.10 C 297.19 576.60 302.21 565.82 309.63 556.61 C 310.82 554.86 312.47 553.23 312.85 551.08 C 311.60 547.54 309.26 544.52 307.43 541.28 C 308.24 540.11 309.06 538.97 309.87 537.81 C 309.20 535.56 308.56 533.31 307.94 531.06 Z" fill="#2e2e3b" opacity="1.00" stroke="#2e2e3b" stroke-width="0.25"/>
<path d="M 667.65 540.61 C 672.66 538.36 677.36 535.47 682.37 533.19 C 680.74 536.49 678.87 539.69 676.48 542.50 C 669.53 550.83 661.80 558.47 653.88 565.87 C 647.29 571.96 639.72 576.84 632.92 582.66 C 634.05 582.76 635.20 582.87 636.35 582.98 C 634.44 584.48 632.69 586.15 630.98 587.87 C 631.85 589.26 632.67 590.69 633.57 592.08 C 639.65 590.62 644.52 586.51 649.53 583.01 C 652.89 588.38 654.04 594.78 654.30 601.02 C 654.56 603.79 652.18 605.68 650.39 607.41 C 639.74 616.42 628.38 624.76 615.69 630.68 C 595.78 640.45 574.04 646.07 552.15 649.18 C 540.54 651.12 528.74 651.19 517.00 651.21 C 486.89 651.54 456.82 647.46 427.59 640.38 C 399.92 633.14 372.34 623.60 348.44 607.56 C 339.29 600.50 329.98 593.30 323.00 583.98 C 319.72 579.62 315.37 575.93 313.19 570.84 C 313.93 567.77 316.03 565.29 317.71 562.70 C 317.41 562.06 316.79 560.77 316.49 560.13 C 318.32 557.49 320.09 554.80 321.76 552.05 C 320.83 550.32 319.89 548.61 318.97 546.88 C 319.35 544.56 319.75 542.25 320.17 539.94 C 323.31 541.34 326.40 542.86 329.32 544.70 C 343.16 553.71 358.94 559.01 374.37 564.59 C 396.48 572.04 419.79 575.20 442.99 576.76 C 465.23 577.51 487.55 577.40 509.74 575.49 C 520.48 574.03 531.31 573.30 542.08 572.10 C 569.51 568.73 596.73 563.52 623.39 556.26 C 638.56 552.31 653.22 546.69 667.65 540.61 Z" fill="#eaeae4" opacity="1.00" stroke="#eaeae4" stroke-width="0.25"/>
<path d="M 295.97 596.28 C 300.99 583.30 308.25 571.30 316.49 560.13 C 316.79 560.77 317.41 562.06 317.71 562.70 C 316.03 565.29 313.93 567.77 313.19 570.84 C 315.37 575.93 319.72 579.62 323.00 583.98 C 329.98 593.30 339.29 600.50 348.44 607.56 C 372.34 623.60 399.92 633.14 427.59 640.38 C 456.82 647.46 486.89 651.54 517.00 651.21 C 528.74 651.19 540.54 651.12 552.15 649.18 C 574.04 646.07 595.78 640.45 615.69 630.68 C 628.38 624.76 639.74 616.42 650.39 607.41 C 652.18 605.68 654.56 603.79 654.30 601.02 C 654.04 594.78 652.89 588.38 649.53 583.01 C 651.05 581.89 652.61 580.81 654.22 579.81 C 655.91 592.21 660.08 604.38 659.50 617.01 C 659.72 615.96 659.97 614.93 660.22 613.90 C 661.83 626.95 663.99 639.96 664.72 653.10 C 665.08 663.41 665.55 673.73 664.89 684.04 C 664.14 681.55 663.39 679.07 662.36 676.69 C 659.95 674.64 657.44 676.05 655.38 677.79 C 656.38 683.14 656.88 688.58 657.37 694.01 C 657.54 700.59 659.19 707.02 659.44 713.60 C 660.28 726.96 663.41 740.57 660.33 753.86 C 658.34 759.62 655.07 765.23 649.65 768.36 C 649.07 765.75 648.56 763.14 647.93 760.55 C 646.37 760.52 644.81 760.51 643.26 760.52 C 643.90 763.96 644.85 767.34 645.56 770.78 C 642.46 772.14 639.48 774.00 636.06 774.42 C 633.20 774.69 630.32 774.66 627.46 774.68 C 627.50 771.64 627.47 768.60 627.42 765.57 C 627.42 764.99 627.43 763.82 627.44 763.23 C 626.09 763.23 624.48 762.31 623.31 763.29 C 622.07 766.69 622.78 770.41 622.61 773.97 C 616.53 773.50 610.61 771.37 605.84 767.53 C 600.27 762.47 596.06 755.81 594.53 748.39 C 590.96 733.83 589.18 718.91 586.63 704.15 C 585.68 699.14 585.83 693.98 584.61 689.03 C 584.35 687.15 582.56 686.15 581.03 685.42 C 578.30 686.50 576.68 689.04 577.45 691.99 C 579.33 704.64 580.47 717.42 583.09 729.97 C 585.40 742.46 586.50 756.24 595.06 766.34 C 594.96 766.93 594.76 768.13 594.66 768.72 C 586.86 770.14 578.93 770.45 571.08 771.39 C 562.73 772.08 554.18 773.51 545.87 771.86 C 548.90 767.85 551.37 763.18 551.68 758.06 C 552.02 752.42 551.89 746.73 551.22 741.12 C 549.57 730.89 546.35 721.00 544.23 710.86 C 542.83 704.81 541.67 698.58 538.97 692.95 C 538.07 690.80 535.32 691.68 533.51 691.32 C 532.63 693.90 532.49 696.63 533.36 699.25 C 536.42 711.11 538.97 723.09 541.74 735.02 C 544.02 743.69 546.30 753.23 542.85 761.90 C 541.22 766.77 537.77 770.72 533.98 774.07 C 533.37 771.66 533.00 769.15 531.85 766.94 C 531.01 764.90 527.61 764.62 526.99 766.95 C 527.77 770.44 529.13 773.79 529.54 777.37 C 524.14 778.28 519.10 780.85 513.52 780.95 C 512.94 777.13 512.58 773.30 512.45 769.45 C 511.09 769.43 509.74 769.43 508.40 769.45 C 507.50 773.06 507.64 776.79 507.69 780.49 C 500.47 780.35 493.22 777.92 487.55 773.40 C 482.05 768.92 476.85 763.72 474.09 757.06 C 467.14 741.24 460.87 725.12 455.00 708.87 C 454.17 707.10 452.47 704.63 450.24 705.75 C 449.06 706.63 448.01 707.74 447.38 709.09 C 447.61 711.93 448.98 714.51 449.93 717.17 C 452.69 724.31 455.20 731.54 458.07 738.64 C 462.38 749.38 465.87 760.67 472.74 770.14 C 471.17 769.52 469.26 769.36 468.11 768.01 C 462.10 760.67 460.43 751.04 456.03 742.85 C 455.05 740.36 452.21 740.55 450.01 740.64 C 414.50 743.18 378.38 744.97 343.27 737.70 C 331.12 735.78 319.78 730.88 307.98 727.68 C 318.01 743.01 332.72 755.77 350.13 761.92 C 362.76 766.12 375.64 770.12 388.99 771.13 C 398.66 771.78 408.28 773.29 418.00 773.04 C 437.14 772.81 456.32 773.62 475.44 772.34 C 476.52 773.54 477.46 774.86 478.42 776.18 C 466.95 776.53 455.47 776.54 444.00 776.51 C 430.99 776.25 417.95 776.90 404.98 775.65 C 389.89 774.95 374.73 773.37 360.24 768.86 C 342.73 763.94 326.61 754.10 314.35 740.65 C 301.49 726.60 292.00 709.49 287.06 691.08 C 286.70 688.11 286.45 685.08 286.87 682.11 C 286.97 679.94 289.57 679.81 291.07 679.02 C 300.68 676.43 311.08 672.28 316.39 663.31 C 319.62 657.92 315.59 652.02 311.79 648.21 C 307.82 643.64 302.03 641.30 297.76 637.12 C 295.29 634.74 298.21 631.65 300.33 630.27 C 307.08 626.21 315.28 628.78 322.64 627.59 C 324.69 627.35 326.52 625.38 325.82 623.26 C 324.68 620.29 321.97 618.36 319.57 616.46 C 312.67 611.45 305.78 606.41 298.68 601.67 C 297.19 600.22 296.35 598.29 295.97 596.28 Z" fill="#fefdf5" opacity="1.00" stroke="#fefdf5" stroke-width="0.25"/>
<path d="M 248.63 577.84 C 254.07 576.89 260.32 576.39 265.07 579.78 C 273.34 584.73 277.24 594.71 277.49 604.00 C 277.54 608.63 277.97 613.32 277.13 617.90 C 274.80 626.02 270.87 633.52 266.98 640.97 C 266.05 642.86 265.13 644.77 264.22 646.68 C 263.89 646.00 263.23 644.65 262.90 643.97 C 262.23 648.09 261.86 652.24 261.44 656.39 C 258.42 650.89 261.02 644.73 261.99 639.05 C 260.69 640.57 259.38 642.09 258.13 643.67 C 261.25 631.43 271.08 621.20 270.38 607.96 C 269.58 601.71 269.12 594.93 265.22 589.68 C 262.07 585.01 255.60 583.26 250.39 585.17 C 246.51 586.60 243.15 589.11 239.88 591.59 C 233.00 591.77 228.94 598.13 224.64 602.60 C 213.88 614.22 205.46 628.64 203.68 644.61 C 203.02 650.74 202.92 656.95 203.35 663.10 C 203.59 666.82 205.28 670.24 205.78 673.92 C 205.58 675.64 204.68 677.17 204.01 678.75 L 203.45 678.02 C 198.39 670.45 198.35 660.79 198.42 652.00 C 198.14 642.08 200.90 632.33 205.27 623.50 C 209.79 612.49 217.41 603.15 225.59 594.66 C 232.63 588.31 239.39 580.92 248.63 577.84 Z" fill="#2a3441" opacity="1.00" stroke="#2a3441" stroke-width="0.25"/>
<path d="M 355.41 580.07 C 356.02 577.95 358.67 577.73 360.29 578.81 C 376.44 588.91 394.28 596.05 412.57 601.22 C 412.57 602.52 412.57 603.83 412.56 605.15 C 408.37 605.45 404.47 603.34 400.30 603.27 C 400.78 603.11 401.26 602.95 401.75 602.81 C 390.37 600.08 379.67 595.03 369.33 589.66 C 364.71 586.48 358.84 584.68 355.41 580.07 Z" fill="#161216" opacity="1.00" stroke="#161216" stroke-width="0.25"/>
<path d="M 250.39 585.17 C 255.60 583.26 262.07 585.01 265.22 589.68 C 269.12 594.93 269.58 601.71 270.38 607.96 C 271.08 621.20 261.25 631.43 258.13 643.67 C 256.75 648.02 257.10 652.68 257.76 657.14 C 255.84 653.15 256.30 648.65 255.62 644.41 C 254.92 643.68 254.09 643.12 253.25 642.59 C 257.02 638.78 258.52 633.54 260.89 628.87 C 262.96 624.70 265.04 620.47 266.04 615.90 C 267.59 609.43 266.46 602.69 264.71 596.40 C 263.71 592.86 261.71 588.90 257.78 588.06 C 252.34 586.78 247.23 589.90 243.06 593.03 C 240.40 595.07 237.34 597.48 237.14 601.12 C 236.38 611.22 238.12 621.38 240.80 631.11 C 234.93 620.85 235.24 608.43 236.28 597.03 C 235.06 597.41 233.84 597.78 232.65 598.21 C 235.00 595.94 237.34 593.65 239.88 591.59 C 243.15 589.11 246.51 586.60 250.39 585.17 Z" fill="#c9e4eb" opacity="1.00" stroke="#c9e4eb" stroke-width="0.25"/>
<path d="M 243.06 593.03 C 247.23 589.90 252.34 586.78 257.78 588.06 C 261.71 588.90 263.71 592.86 264.71 596.40 C 266.46 602.69 267.59 609.43 266.04 615.90 C 265.04 620.47 262.96 624.70 260.89 628.87 C 258.52 633.54 257.02 638.78 253.25 642.59 C 248.10 640.05 243.41 636.33 240.80 631.11 C 238.12 621.38 236.38 611.22 237.14 601.12 C 237.34 597.48 240.40 595.07 243.06 593.03 Z" fill="#b1dade" opacity="1.00" stroke="#b1dade" stroke-width="0.25"/>
<path d="M 224.64 602.60 C 228.94 598.13 233.00 591.77 239.88 591.59 C 237.34 593.65 235.00 595.94 232.65 598.21 C 225.85 604.68 219.95 612.08 215.05 620.07 C 208.23 629.55 205.57 641.47 205.14 652.97 C 205.08 661.66 206.36 670.62 210.77 678.25 C 212.44 681.80 214.29 685.29 216.59 688.49 C 216.58 689.73 216.56 690.97 216.55 692.23 C 212.31 687.57 210.07 681.60 206.47 676.50 C 206.17 677.93 205.88 679.36 205.59 680.79 C 205.06 680.10 204.53 679.42 204.01 678.75 C 204.68 677.17 205.58 675.64 205.78 673.92 C 205.28 670.24 203.59 666.82 203.35 663.10 C 202.92 656.95 203.02 650.74 203.68 644.61 C 205.46 628.64 213.88 614.22 224.64 602.60 Z" fill="#0c0b17" opacity="1.00" stroke="#0c0b17" stroke-width="0.25"/>
<path d="M 281.30 603.96 C 283.30 599.46 283.81 593.99 287.99 590.80 C 287.99 592.31 287.94 593.83 287.83 595.35 C 280.32 617.78 275.51 641.31 276.32 665.06 C 271.59 662.53 266.41 659.32 264.81 653.86 C 264.07 649.46 265.53 645.07 266.98 640.97 C 270.87 633.52 274.80 626.02 277.13 617.90 C 279.86 610.09 277.44 601.75 278.27 593.71 C 280.37 596.72 280.54 600.48 281.30 603.96 Z" fill="#aac1c6" opacity="1.00" stroke="#aac1c6" stroke-width="0.25"/>
<path d="M 284.48 645.97 C 286.29 629.03 289.77 612.20 295.97 596.28 C 296.35 598.29 297.19 600.22 298.68 601.67 C 298.33 602.03 297.62 602.75 297.27 603.10 C 298.53 604.97 299.79 606.84 301.06 608.70 C 299.60 607.72 298.16 606.71 296.71 605.74 C 289.46 629.31 284.00 654.36 288.19 679.05 C 288.91 679.04 290.35 679.02 291.07 679.02 C 289.57 679.81 286.97 679.94 286.87 682.11 C 286.45 685.08 286.70 688.11 287.06 691.08 C 283.47 676.32 284.14 661.03 284.48 645.97 Z" fill="#cbe6eb" opacity="1.00" stroke="#cbe6eb" stroke-width="0.25"/>
<path d="M 232.65 598.21 C 233.84 597.78 235.06 597.41 236.28 597.03 C 235.24 608.43 234.93 620.85 240.80 631.11 C 243.41 636.33 248.10 640.05 253.25 642.59 C 254.09 643.12 254.92 643.68 255.62 644.41 C 256.30 648.65 255.84 653.15 257.76 657.14 C 260.96 665.13 268.83 669.55 276.42 672.59 C 276.26 681.78 279.12 690.60 281.71 699.30 C 281.56 701.38 281.23 703.44 280.90 705.50 C 277.37 699.63 277.16 692.56 274.28 686.42 C 270.14 691.22 266.58 696.58 261.59 700.58 C 256.58 705.08 250.29 707.91 245.63 712.83 C 246.33 713.60 247.05 714.37 247.78 715.14 C 235.39 709.02 224.23 700.11 216.59 688.49 C 214.29 685.29 212.44 681.80 210.77 678.25 C 209.25 672.21 207.11 666.27 206.61 660.03 C 206.12 654.09 206.59 648.12 207.47 642.24 C 208.70 634.46 212.30 627.38 215.05 620.07 C 219.95 612.08 225.85 604.68 232.65 598.21 Z" fill="#fefdf5" opacity="1.00" stroke="#fefdf5" stroke-width="0.25"/>
<path d="M 297.27 603.10 C 297.62 602.75 298.33 602.03 298.68 601.67 C 305.78 606.41 312.67 611.45 319.57 616.46 C 321.97 618.36 324.68 620.29 325.82 623.26 C 326.52 625.38 324.69 627.35 322.64 627.59 C 315.28 628.78 307.08 626.21 300.33 630.27 C 298.21 631.65 295.29 634.74 297.76 637.12 C 302.03 641.30 307.82 643.64 311.79 648.21 C 315.59 652.02 319.62 657.92 316.39 663.31 C 311.08 672.28 300.68 676.43 291.07 679.02 C 290.35 679.02 288.91 679.04 288.19 679.05 C 284.00 654.36 289.46 629.31 296.71 605.74 C 298.16 606.71 299.60 607.72 301.06 608.70 C 299.79 606.84 298.53 604.97 297.27 603.10 Z" fill="#b4dadc" opacity="1.00" stroke="#b4dadc" stroke-width="0.25"/>
<path d="M 205.14 652.97 C 205.57 641.47 208.23 629.55 215.05 620.07 C 212.30 627.38 208.70 634.46 207.47 642.24 C 206.59 648.12 206.12 654.09 206.61 660.03 C 207.11 666.27 209.25 672.21 210.77 678.25 C 206.36 670.62 205.08 661.66 205.14 652.97 Z" fill="#8e8a90" opacity="1.00" stroke="#8e8a90" stroke-width="0.25"/>
<path d="M 664.72 653.10 C 666.05 659.98 666.34 667.01 666.35 674.00 C 666.30 680.15 666.99 686.47 664.99 692.42 C 662.65 687.52 662.63 682.00 662.36 676.69 C 663.39 679.07 664.14 681.55 664.89 684.04 C 665.55 673.73 665.08 663.41 664.72 653.10 Z" fill="#c6c4cf" opacity="1.00" stroke="#c6c4cf" stroke-width="0.25"/>
<path d="M 577.45 691.99 C 576.68 689.04 578.30 686.50 581.03 685.42 C 582.56 686.15 584.35 687.15 584.61 689.03 C 585.83 693.98 585.68 699.14 586.63 704.15 C 589.18 718.91 590.96 733.83 594.53 748.39 C 596.06 755.81 600.27 762.47 605.84 767.53 C 605.19 767.80 603.89 768.34 603.24 768.61 C 601.47 767.05 599.71 765.49 597.96 763.94 C 598.92 766.34 599.84 768.75 600.70 771.20 C 599.05 770.02 597.44 768.80 595.94 767.45 C 595.72 767.17 595.28 766.62 595.06 766.34 C 586.50 756.24 585.40 742.46 583.09 729.97 C 580.47 717.42 579.33 704.64 577.45 691.99 Z" fill="#292331" opacity="1.00" stroke="#292331" stroke-width="0.25"/>
<path d="M 261.59 700.58 C 266.58 696.58 270.14 691.22 274.28 686.42 C 277.16 692.56 277.37 699.63 280.90 705.50 C 281.23 703.44 281.56 701.38 281.71 699.30 C 283.99 705.49 286.15 711.76 289.21 717.63 C 291.30 721.70 293.83 725.54 295.86 729.66 C 279.27 727.19 262.80 722.72 247.78 715.14 C 247.05 714.37 246.33 713.60 245.63 712.83 C 250.29 707.91 256.58 705.08 261.59 700.58 Z" fill="#ebeae6" opacity="1.00" stroke="#ebeae6" stroke-width="0.25"/>
<path d="M 533.51 691.32 C 535.32 691.68 538.07 690.80 538.97 692.95 C 541.67 698.58 542.83 704.81 544.23 710.86 C 546.35 721.00 549.57 730.89 551.22 741.12 C 551.89 746.73 552.02 752.42 551.68 758.06 C 551.37 763.18 548.90 767.85 545.87 771.86 C 545.59 772.25 545.04 773.03 544.76 773.42 C 544.03 773.31 543.32 773.21 542.61 773.11 C 542.64 771.74 542.68 770.37 542.72 769.02 C 540.36 771.55 538.16 774.32 535.31 776.34 C 533.63 777.51 531.47 777.15 529.54 777.37 C 529.13 773.79 527.77 770.44 526.99 766.95 C 527.61 764.62 531.01 764.90 531.85 766.94 C 533.00 769.15 533.37 771.66 533.98 774.07 C 537.77 770.72 541.22 766.77 542.85 761.90 C 546.30 753.23 544.02 743.69 541.74 735.02 C 538.97 723.09 536.42 711.11 533.36 699.25 C 532.49 696.63 532.63 693.90 533.51 691.32 Z" fill="#2b2432" opacity="1.00" stroke="#2b2432" stroke-width="0.25"/>
<path d="M 565.22 708.13 C 569.00 704.79 570.69 699.99 573.13 695.74 C 573.53 695.85 574.31 696.08 574.70 696.19 C 575.90 701.59 575.67 707.18 576.76 712.60 C 577.49 716.06 577.99 719.56 578.26 723.09 C 578.49 726.73 580.21 730.08 580.36 733.74 C 580.61 741.31 583.20 748.51 585.24 755.72 C 586.28 759.61 588.57 762.94 590.76 766.26 C 587.54 767.04 584.24 767.35 580.94 767.42 C 571.24 767.59 561.65 770.46 551.92 769.05 C 553.30 765.42 556.11 762.15 555.83 758.07 C 555.61 750.99 556.56 743.69 554.08 736.90 C 552.81 733.85 554.14 730.78 555.50 728.06 C 554.41 728.62 553.32 729.17 552.24 729.74 C 550.89 719.46 546.64 709.79 545.48 699.50 C 553.05 698.90 559.17 704.40 565.22 708.13 Z" fill="#ebeae5" opacity="1.00" stroke="#ebeae5" stroke-width="0.25"/>
<path d="M 307.98 727.68 C 319.78 730.88 331.12 735.78 343.27 737.70 C 378.38 744.97 414.50 743.18 450.01 740.64 C 452.21 740.55 455.05 740.36 456.03 742.85 C 460.43 751.04 462.10 760.67 468.11 768.01 C 469.26 769.36 471.17 769.52 472.74 770.14 C 473.66 770.84 474.57 771.56 475.44 772.34 C 456.32 773.62 437.14 772.81 418.00 773.04 C 408.28 773.29 398.66 771.78 388.99 771.13 C 375.64 770.12 362.76 766.12 350.13 761.92 C 332.72 755.77 318.01 743.01 307.98 727.68 Z" fill="#ecebe6" opacity="1.00" stroke="#ecebe6" stroke-width="0.25"/>
<path d="M 260.02 737.08 C 262.04 734.40 264.08 729.83 268.23 731.74 C 276.68 734.16 285.28 736.06 293.98 737.25 C 297.27 737.84 301.00 737.99 303.51 740.50 C 308.81 745.51 313.26 751.40 319.08 755.86 C 326.78 761.65 334.63 767.42 343.49 771.34 C 357.20 777.81 372.22 780.82 387.13 783.00 C 380.42 783.51 373.71 782.04 367.01 782.97 C 355.33 783.32 343.68 781.69 331.99 781.82 C 305.14 780.19 278.35 777.13 251.91 772.09 C 244.61 770.35 237.10 768.95 230.31 765.65 C 227.85 764.31 224.69 762.40 224.96 759.17 C 226.30 756.22 229.19 754.41 231.97 752.98 C 239.68 749.10 248.20 747.40 256.23 744.35 C 262.87 741.83 270.03 741.67 277.04 741.60 C 274.18 740.65 271.18 739.75 268.14 740.28 C 264.95 740.54 261.82 742.08 258.60 741.47 C 257.71 739.81 259.27 738.41 260.02 737.08 Z" fill="#82a8aa" opacity="1.00" stroke="#82a8aa" stroke-width="0.25"/>
<path d="M 669.91 746.44 C 670.90 747.37 671.88 748.57 673.40 748.49 C 689.41 749.39 705.32 752.10 720.78 756.31 C 725.34 757.74 730.21 758.96 734.00 762.04 C 735.11 762.71 735.75 764.48 734.70 765.49 C 731.43 768.82 726.78 770.24 722.42 771.50 C 699.17 777.72 674.98 778.68 651.17 781.25 C 648.89 781.34 646.71 780.58 644.57 779.97 C 653.02 776.25 661.05 770.49 665.11 761.95 C 666.88 758.12 668.11 754.08 669.06 749.99 C 669.33 748.79 669.63 747.61 669.91 746.44 Z" fill="#83a8ac" opacity="1.00" stroke="#83a8ac" stroke-width="0.25"/>
<path d="M 649.65 768.36 C 655.07 765.23 658.34 759.62 660.33 753.86 C 660.94 757.03 662.22 760.20 665.11 761.95 C 661.05 770.49 653.02 776.25 644.57 779.97 C 634.84 783.00 624.13 783.68 614.22 781.23 C 610.47 779.80 607.02 777.51 603.02 776.85 C 590.95 777.36 579.12 780.68 567.00 780.57 C 558.96 780.71 550.96 781.54 542.91 781.41 C 537.43 781.27 532.69 784.31 527.73 786.14 C 522.06 788.15 515.99 788.81 510.00 788.60 C 505.56 788.41 500.82 788.75 496.77 786.60 C 497.84 785.93 498.89 785.24 499.95 784.55 C 496.60 783.72 493.30 782.52 490.72 780.17 C 496.64 781.21 502.29 783.95 508.43 783.51 C 507.05 782.79 505.69 782.08 504.32 781.39 C 505.44 781.09 506.57 780.81 507.69 780.49 C 507.64 776.79 507.50 773.06 508.40 769.45 C 508.61 773.49 508.76 777.67 510.60 781.39 C 511.51 777.46 512.00 773.45 512.45 769.45 C 512.58 773.30 512.94 777.13 513.52 780.95 C 519.10 780.85 524.14 778.28 529.54 777.37 C 531.47 777.15 533.63 777.51 535.31 776.34 C 538.16 774.32 540.36 771.55 542.72 769.02 C 542.68 770.37 542.64 771.74 542.61 773.11 C 543.32 773.21 544.03 773.31 544.76 773.42 C 547.56 773.79 550.39 773.92 553.22 773.85 C 550.50 774.08 547.88 774.96 545.57 776.40 C 556.04 776.08 566.57 776.26 576.97 774.85 C 583.81 773.97 590.74 773.68 597.49 772.16 C 595.18 770.71 592.43 770.44 589.78 770.63 C 591.82 770.30 593.85 769.92 595.89 769.55 C 595.90 769.02 595.93 767.97 595.94 767.45 C 597.44 768.80 599.05 770.02 600.70 771.20 C 599.84 768.75 598.92 766.34 597.96 763.94 C 599.71 765.49 601.47 767.05 603.24 768.61 C 603.89 768.34 605.19 767.80 605.84 767.53 C 610.61 771.37 616.53 773.50 622.61 773.97 C 622.78 770.41 622.07 766.69 623.31 763.29 C 624.48 762.31 626.09 763.23 627.44 763.23 C 626.55 763.48 624.79 763.98 623.91 764.24 C 623.70 768.03 623.47 772.00 625.38 775.45 C 626.13 772.17 626.85 768.88 627.42 765.57 C 627.47 768.60 627.50 771.64 627.46 774.68 C 630.32 774.66 633.20 774.69 636.06 774.42 C 639.48 774.00 642.46 772.14 645.56 770.78 C 646.32 770.42 647.10 770.12 647.87 769.78 C 647.82 766.70 647.80 763.62 647.93 760.55 C 648.56 763.14 649.07 765.75 649.65 768.36 Z" fill="#313341" opacity="1.00" stroke="#313341" stroke-width="0.25"/>
<path d="M 643.26 760.52 C 644.81 760.51 646.37 760.52 647.93 760.55 C 647.80 763.62 647.82 766.70 647.87 769.78 C 647.10 770.12 646.32 770.42 645.56 770.78 C 644.85 767.34 643.90 763.96 643.26 760.52 Z" fill="#090006" opacity="1.00" stroke="#090006" stroke-width="0.25"/>
<path d="M 623.91 764.24 C 624.79 763.98 626.55 763.48 627.44 763.23 C 627.43 763.82 627.42 764.99 627.42 765.57 C 626.85 768.88 626.13 772.17 625.38 775.45 C 623.47 772.00 623.70 768.03 623.91 764.24 Z" fill="#0e0a10" opacity="1.00" stroke="#0e0a10" stroke-width="0.25"/>
<path d="M 595.06 766.34 C 595.28 766.62 595.72 767.17 595.94 767.45 C 595.93 767.97 595.90 769.02 595.89 769.55 C 593.85 769.92 591.82 770.30 589.78 770.63 C 577.69 772.60 565.46 773.53 553.22 773.85 C 550.39 773.92 547.56 773.79 544.76 773.42 C 545.04 773.03 545.59 772.25 545.87 771.86 C 554.18 773.51 562.73 772.08 571.08 771.39 C 578.93 770.45 586.86 770.14 594.66 768.72 C 594.76 768.13 594.96 766.93 595.06 766.34 Z" fill="#8d8a90" opacity="1.00" stroke="#8d8a90" stroke-width="0.25"/>
<path d="M 508.40 769.45 C 509.74 769.43 511.09 769.43 512.45 769.45 C 512.00 773.45 511.51 777.46 510.60 781.39 C 508.76 777.67 508.61 773.49 508.40 769.45 Z" fill="#060305" opacity="1.00" stroke="#060305" stroke-width="0.25"/>
<path d="M 553.22 773.85 C 565.46 773.53 577.69 772.60 589.78 770.63 C 592.43 770.44 595.18 770.71 597.49 772.16 C 590.74 773.68 583.81 773.97 576.97 774.85 C 566.57 776.26 556.04 776.08 545.57 776.40 C 547.88 774.96 550.50 774.08 553.22 773.85 Z" fill="#211e2c" opacity="1.00" stroke="#211e2c" stroke-width="0.25"/>
<path d="M 567.00 780.57 C 579.12 780.68 590.95 777.36 603.02 776.85 C 607.02 777.51 610.47 779.80 614.22 781.23 C 613.51 781.47 612.11 781.97 611.40 782.21 C 611.81 783.03 612.23 783.86 612.66 784.69 C 605.11 783.30 597.56 785.35 589.99 785.16 C 582.30 785.00 574.68 786.19 567.00 786.22 C 559.97 786.19 552.96 786.82 545.93 786.73 C 539.85 786.47 533.62 788.49 527.73 786.14 C 532.69 784.31 537.43 781.27 542.91 781.41 C 550.96 781.54 558.96 780.71 567.00 780.57 Z" fill="#8da9af" opacity="1.00" stroke="#8da9af" stroke-width="0.25"/>
</svg>